<svg width="32" height="32" viewBox="0 0 32 32" fill="none" xmlns="http://www.w3.org/2000/svg">
<path fill-rule="evenodd" clip-rule="evenodd" d="M24.1419 5.10102C23.5276 5.05083 22.7376 5.05001 21.6002 5.05001H10.0002C9.4203 5.05001 8.9502 4.57991 8.9502 4.00001C8.9502 3.42011 9.4203 2.95001 10.0002 2.95001L21.6449 2.95001C22.7271 2.95 23.603 2.94999 24.3129 3.008C25.0448 3.0678 25.6923 3.19445 26.2928 3.50043C27.2431 3.98459 28.0156 4.75714 28.4998 5.70736C28.8058 6.30788 28.9324 6.95538 28.9922 7.68732C29.0502 8.39725 29.0502 9.27315 29.0502 10.3553V22C29.0502 22.5799 28.5801 23.05 28.0002 23.05C27.4203 23.05 26.9502 22.5799 26.9502 22V10.4C26.9502 9.26258 26.9494 8.47266 26.8992 7.85832C26.85 7.25625 26.7587 6.91587 26.6287 6.66074C26.3458 6.10566 25.8945 5.65437 25.3395 5.37154C25.0843 5.24155 24.744 5.15021 24.1419 5.10102Z" fill="#23242A"/>
<path fill-rule="evenodd" clip-rule="evenodd" d="M7.16013 7.61668H20.1736C20.6994 7.61666 21.156 7.61664 21.5326 7.64742C21.9311 7.67997 22.3316 7.75213 22.7182 7.94911C23.2921 8.24152 23.7587 8.70811 24.0511 9.28201C24.2481 9.66861 24.3202 10.0691 24.3528 10.4676C24.3836 10.8442 24.3836 11.3007 24.3835 11.8265V24.8402C24.3836 25.3659 24.3836 25.8225 24.3528 26.1991C24.3202 26.5975 24.2481 26.9981 24.0511 27.3847C23.7587 27.9586 23.2921 28.4252 22.7182 28.7176C22.3316 28.9146 21.9311 28.9867 21.5326 29.0193C21.156 29.0501 20.6995 29.05 20.1737 29.05H7.16006C6.63426 29.05 6.17773 29.0501 5.8011 29.0193C5.40266 28.9867 5.00213 28.9146 4.61553 28.7176C4.04163 28.4252 3.57504 27.9586 3.28263 27.3847C3.08564 26.9981 3.01349 26.5975 2.98093 26.1991C2.95016 25.8225 2.95018 25.3659 2.9502 24.8401V11.8266C2.95018 11.3008 2.95016 10.8442 2.98093 10.4676C3.01349 10.0691 3.08564 9.66861 3.28263 9.28201C3.57504 8.70811 4.04163 8.24152 4.61553 7.94911C5.00213 7.75213 5.40266 7.67997 5.8011 7.64742C6.17774 7.61664 6.63431 7.61666 7.16013 7.61668ZM5.9721 9.74044C5.70353 9.76238 5.61013 9.79922 5.56891 9.82022C5.39015 9.9113 5.24482 10.0566 5.15374 10.2354C5.13274 10.2766 5.0959 10.37 5.07396 10.6386C5.05101 10.9194 5.0502 11.2893 5.0502 11.8667V24.8C5.0502 25.3774 5.05101 25.7473 5.07396 26.0281C5.0959 26.2967 5.13274 26.3901 5.15374 26.4313C5.24482 26.6101 5.39015 26.7554 5.56891 26.8465C5.61013 26.8675 5.70353 26.9043 5.97211 26.9263C6.25294 26.9492 6.62282 26.95 7.2002 26.95H20.1335C20.7109 26.95 21.0808 26.9492 21.3616 26.9263C21.6302 26.9043 21.7236 26.8675 21.7648 26.8465C21.9436 26.7554 22.0889 26.6101 22.18 26.4313C22.201 26.3901 22.2378 26.2967 22.2598 26.0281C22.2827 25.7473 22.2835 25.3774 22.2835 24.8V11.8667C22.2835 11.2893 22.2827 10.9194 22.2598 10.6386C22.2378 10.37 22.201 10.2766 22.18 10.2354C22.0889 10.0566 21.9436 9.9113 21.7648 9.82022C21.7236 9.79922 21.6302 9.76238 21.3616 9.74044C21.0808 9.7175 20.7109 9.71668 20.1335 9.71668H7.2002C6.62282 9.71668 6.25293 9.7175 5.9721 9.74044Z" fill="#23242A"/>
</svg>
