<svg width="77.5" height="48" overflow="visible" style="display: block;" viewBox="0 0 77.5 48" fill="none" xmlns="http://www.w3.org/2000/svg">
<g id="Frame" clip-path="url(#clip0_0_6)">
<path id="Vector" d="M23.9722 48C37.2117 48 47.9445 37.2549 47.9445 24C47.9445 10.7451 37.2117 0 23.9722 0C10.7327 0 0 10.7451 0 24C0 37.2549 10.7327 48 23.9722 48Z" fill="var(--fill-0, white)"/>
<path id="Vector_2" d="M37.3849 17.2808H33.859L28.9178 30.8559H32.4472L37.3885 17.2808H37.3849ZM23.9765 46.2524C23.7553 46.2524 23.5375 46.2489 23.3198 46.2419L27.8466 33.7812H34.0802C35.1724 33.7812 36.3735 32.9374 36.7492 31.9107L41.6624 18.3989C42.4666 16.1873 41.2023 14.3766 38.8494 14.3766H30.2031L22.9475 34.3368H22.944L18.8316 45.6511C9.0755 43.3271 1.81641 34.5477 1.81641 24.0702C1.81641 13.5926 8.6576 5.31595 17.9887 2.70008L13.7428 14.3766L6.6874 33.7812H11.3828L17.3847 17.2913H20.9141L14.9123 33.7812H19.6077L25.1987 18.3989C26.0029 16.1873 24.7386 14.3766 22.3891 14.3766H18.4418L22.9756 1.90547C23.3057 1.8914 23.6359 1.88086 23.973 1.88086C36.212 1.88086 46.133 11.8135 46.133 24.0666C46.133 36.3198 36.212 46.2524 23.973 46.2524H23.9765Z" fill="var(--fill-0, #024AD8)"/>
<path id="Vector_3" d="M51.7735 14.3838H55.201V33.7709H51.7735V14.3838Z" fill="var(--fill-0, white)"/>
<path id="Vector_4" d="M73.4695 30.5221H77.501V33.7709H67.7135C61.1705 33.7709 57.09 29.8154 57.09 24.0492C57.09 18.283 61.5395 14.1201 67.1375 14.1201C72.7355 14.1201 77.1075 18.0756 77.1075 23.6554C77.1075 26.3557 75.826 28.9751 73.4695 30.5186V30.5221ZM73.5995 24C73.5995 20.0691 70.8005 17.4498 67.134 17.4498C63.4675 17.4498 60.6685 20.0691 60.6685 24C60.6685 27.9309 63.4955 30.5749 67.134 30.5749C70.772 30.5749 73.5995 27.9555 73.5995 24Z" fill="var(--fill-0, white)"/>
</g>
<defs>
<clipPath id="clip0_0_6">
<rect width="77.5" height="48" fill="white"/>
</clipPath>
</defs>
</svg>
