<svg width="32" height="32" viewBox="0 0 32 32" fill="none" xmlns="http://www.w3.org/2000/svg">
<path fill-rule="evenodd" clip-rule="evenodd" d="M11.4757 4.42037C12.301 2.76077 14.0157 1.61667 15.9995 1.61667C18.7886 1.61667 21.0495 3.87763 21.0495 6.66667V12.5333C21.0495 13.1132 20.5794 13.5833 19.9995 13.5833C19.4196 13.5833 18.9495 13.1132 18.9495 12.5333V6.66667C18.9495 5.03743 17.6288 3.71667 15.9995 3.71667C14.8431 3.71667 13.8401 4.38195 13.356 5.35546C13.0978 5.87469 12.4675 6.08629 11.9483 5.82808C11.429 5.56986 11.2174 4.93961 11.4757 4.42037Z" fill="var(--fill-0, white)"/>
<path fill-rule="evenodd" clip-rule="evenodd" d="M11.5976 11.03C11.9899 10.8674 12.4415 10.9572 12.7418 11.2574L19.572 18.0841C19.982 18.4939 19.9823 19.1585 19.5726 19.5687C18.6597 20.4827 17.3949 21.05 15.9995 21.05C13.2105 21.05 10.9495 18.789 10.9495 16V12C10.9495 11.5754 11.2053 11.1925 11.5976 11.03ZM13.0495 14.534V16C13.0495 17.6292 14.3703 18.95 15.9995 18.95C16.4309 18.95 16.8402 18.8578 17.2093 18.6917L13.0495 14.534Z" fill="var(--fill-0, white)"/>
<path fill-rule="evenodd" clip-rule="evenodd" d="M15.9995 24.2833C16.5794 24.2833 17.0495 24.7534 17.0495 25.3333V29.3333C17.0495 29.9132 16.5794 30.3833 15.9995 30.3833C15.4196 30.3833 14.9495 29.9132 14.9495 29.3333V25.3333C14.9495 24.7534 15.4196 24.2833 15.9995 24.2833Z" fill="var(--fill-0, white)"/>
<path fill-rule="evenodd" clip-rule="evenodd" d="M9.61621 29.3333C9.61621 28.7534 10.0863 28.2833 10.6662 28.2833H21.3329C21.9128 28.2833 22.3829 28.7534 22.3829 29.3333C22.3829 29.9132 21.9128 30.3833 21.3329 30.3833H10.6662C10.0863 30.3833 9.61621 29.9132 9.61621 29.3333Z" fill="var(--fill-0, white)"/>
<path fill-rule="evenodd" clip-rule="evenodd" d="M1.92375 1.92421C2.3338 1.51416 2.99862 1.51416 3.40867 1.92421L30.0753 28.5909C30.4854 29.0009 30.4854 29.6657 30.0753 30.0758C29.6653 30.4858 29.0005 30.4858 28.5904 30.0758L1.92375 3.40913C1.5137 2.99908 1.5137 2.33426 1.92375 1.92421Z" fill="var(--fill-0, white)"/>
<path fill-rule="evenodd" clip-rule="evenodd" d="M6.66621 12.2833C7.24611 12.2833 7.71621 12.7534 7.71621 13.3333V16C7.71621 17.2718 7.71847 17.8061 7.77567 18.2405C8.18625 21.3592 10.6404 23.8133 13.7591 24.2239C14.1935 24.2811 14.7277 24.2833 15.9995 24.2833C17.2714 24.2833 17.8056 24.2811 18.24 24.2239C21.3587 23.8133 23.8128 21.3592 24.2234 18.2405C24.2806 17.8061 24.2829 17.2718 24.2829 16V13.3333C24.2829 12.7534 24.753 12.2833 25.3329 12.2833C25.9128 12.2833 26.3829 12.7534 26.3829 13.3333L26.3829 16.0972C26.3829 17.2433 26.383 17.9258 26.3055 18.5146C25.7708 22.5756 22.5752 25.7713 18.5141 26.3059C17.9253 26.3834 17.2428 26.3834 16.0967 26.3833H15.9024C14.7563 26.3834 14.0738 26.3834 13.4849 26.3059C9.42391 25.7713 6.22828 22.5756 5.69363 18.5146C5.61611 17.9258 5.61615 17.2433 5.61621 16.0972C5.61621 16.0652 5.61621 16.0328 5.61621 16V13.3333C5.61621 12.7534 6.08631 12.2833 6.66621 12.2833Z" fill="var(--fill-0, white)"/>
</svg>
