<svg width="32" height="32" viewBox="0 0 32 32" fill="none" xmlns="http://www.w3.org/2000/svg">
<path fill-rule="evenodd" clip-rule="evenodd" d="M6.66622 12.2833C7.24612 12.2833 7.71622 12.7534 7.71622 13.3333V16C7.71622 17.2718 7.71848 17.8061 7.77568 18.2405C8.18626 21.3592 10.6404 23.8133 13.7591 24.2239C14.1935 24.2811 14.7277 24.2833 15.9996 24.2833C17.2714 24.2833 17.8056 24.2811 18.24 24.2239C21.3587 23.8133 23.8128 21.3592 24.2234 18.2405C24.2806 17.8061 24.2829 17.2718 24.2829 16V13.3333C24.2829 12.7534 24.753 12.2833 25.3329 12.2833C25.9128 12.2833 26.3829 12.7534 26.3829 13.3333L26.3829 16.0972C26.3829 17.2433 26.383 17.9258 26.3055 18.5146C25.7708 22.5756 22.5752 25.7713 18.5141 26.3059C17.9253 26.3834 17.2428 26.3834 16.0967 26.3833H15.9024C14.7563 26.3834 14.0738 26.3834 13.485 26.3059C9.42392 25.7713 6.22829 22.5756 5.69364 18.5146C5.61612 17.9258 5.61616 17.2433 5.61621 16.0972C5.61622 16.0652 5.61622 16.0328 5.61622 16V13.3333C5.61622 12.7534 6.08632 12.2833 6.66622 12.2833Z" fill="var(--fill-0, white)"/>
<path fill-rule="evenodd" clip-rule="evenodd" d="M15.9996 24.2833C16.5794 24.2833 17.0496 24.7534 17.0496 25.3333V29.3333C17.0496 29.9132 16.5794 30.3833 15.9996 30.3833C15.4197 30.3833 14.9496 29.9132 14.9496 29.3333V25.3333C14.9496 24.7534 15.4197 24.2833 15.9996 24.2833Z" fill="var(--fill-0, white)"/>
<path fill-rule="evenodd" clip-rule="evenodd" d="M9.61622 29.3333C9.61622 28.7534 10.0863 28.2833 10.6662 28.2833H21.3329C21.9128 28.2833 22.3829 28.7534 22.3829 29.3333C22.3829 29.9132 21.9128 30.3833 21.3329 30.3833H10.6662C10.0863 30.3833 9.61622 29.9132 9.61622 29.3333Z" fill="var(--fill-0, white)"/>
<path fill-rule="evenodd" clip-rule="evenodd" d="M15.8582 1.61661C15.9047 1.61664 15.9518 1.61667 15.9996 1.61667C16.0473 1.61667 16.0944 1.61664 16.1409 1.61661C16.9323 1.61615 17.5295 1.6158 18.0478 1.75467C19.4454 2.12916 20.5371 3.22083 20.9116 4.61845C21.0504 5.13673 21.0501 5.73395 21.0496 6.52535C21.0496 6.57178 21.0496 6.61888 21.0496 6.66667V16C21.0496 16.0478 21.0496 16.0949 21.0496 16.1413C21.0501 16.9327 21.0504 17.5299 20.9116 18.0482C20.5371 19.4458 19.4454 20.5375 18.0478 20.912C17.5295 21.0509 16.9323 21.0505 16.1409 21.0501C16.0944 21.05 16.0473 21.05 15.9996 21.05C15.9518 21.05 15.9047 21.05 15.8582 21.0501C15.0668 21.0505 14.4696 21.0509 13.9513 20.912C12.5537 20.5375 11.462 19.4458 11.0876 18.0482C10.9487 17.5299 10.949 16.9327 10.9495 16.1413C10.9495 16.0949 10.9496 16.0478 10.9496 16V6.66667C10.9496 6.61888 10.9495 6.57178 10.9495 6.52536C10.949 5.73395 10.9487 5.13673 11.0876 4.61845C11.462 3.22083 12.5537 2.12916 13.9513 1.75467C14.4696 1.6158 15.0668 1.61615 15.8582 1.61661ZM15.9996 3.71667C15.002 3.71667 14.7092 3.72569 14.4949 3.78311C13.8219 3.96343 13.2963 4.48904 13.116 5.16197C13.0586 5.37629 13.0496 5.6691 13.0496 6.66667V16C13.0496 16.9976 13.0586 17.2904 13.116 17.5047C13.2963 18.1776 13.8219 18.7032 14.4949 18.8836C14.7092 18.941 15.002 18.95 15.9996 18.95C16.9971 18.95 17.2899 18.941 17.5042 18.8836C18.1772 18.7032 18.7028 18.1776 18.8831 17.5047C18.9405 17.2904 18.9496 16.9976 18.9496 16V6.66667C18.9496 5.6691 18.9405 5.37629 18.8831 5.16197C18.7028 4.48904 18.1772 3.96343 17.5042 3.78311C17.2899 3.72569 16.9971 3.71667 15.9996 3.71667Z" fill="var(--fill-0, white)"/>
</svg>
