<svg width="32" height="32" viewBox="0 0 32 32" fill="none" xmlns="http://www.w3.org/2000/svg">
<path d="M15.9898 21.4199C13.2098 21.4199 10.9398 19.1499 10.9398 16.3699C10.9398 13.5899 13.2098 11.3199 15.9898 11.3199C18.7698 11.3199 21.0398 13.5899 21.0398 16.3699C21.0398 19.1499 18.7698 21.4199 15.9898 21.4199ZM15.9898 13.4199C14.3598 13.4199 13.0398 14.7399 13.0398 16.3699C13.0398 17.9999 14.3598 19.3199 15.9898 19.3199C17.6198 19.3199 18.9398 17.9999 18.9398 16.3699C18.9398 14.7399 17.6198 13.4199 15.9898 13.4199Z" fill="var(--fill-0, white)"/>
<path d="M15.9898 30.7499C15.2098 30.7499 14.4598 30.5299 13.8098 30.0999C13.1598 29.6799 12.6498 29.0799 12.3298 28.3699L11.5498 26.6199C11.3598 26.1999 11.0498 25.8499 10.6498 25.6099C10.2498 25.3799 9.78984 25.2799 9.31984 25.3299L7.40984 25.5299C6.63984 25.6099 5.86984 25.4699 5.16984 25.1199C4.47984 24.7699 3.90984 24.2299 3.51984 23.5599C3.12984 22.8899 2.94984 22.1299 2.98984 21.3499C3.02984 20.5799 3.28984 19.8399 3.74984 19.2099L4.87984 17.6599C5.14984 17.2799 5.29984 16.8399 5.29984 16.3699C5.29984 15.8999 5.14984 15.4599 4.87984 15.0799L3.74984 13.5299C3.30984 12.8999 3.04984 12.1599 2.99984 11.3899C2.95984 10.6099 3.13984 9.84994 3.52984 9.17994C3.91984 8.50994 4.48984 7.96994 5.17984 7.61994C5.86984 7.26994 6.64984 7.11994 7.40984 7.20994L9.31984 7.40994C9.77984 7.45994 10.2398 7.35994 10.6398 7.12994C11.0398 6.89994 11.3498 6.54994 11.5398 6.12994L12.3198 4.36994C12.6298 3.65994 13.1398 3.05994 13.7998 2.63994C15.0998 1.78994 16.8598 1.78994 18.1598 2.63994C18.8098 3.05994 19.3198 3.65994 19.6398 4.36994L20.4198 6.11994C20.6098 6.54994 20.9198 6.89994 21.3198 7.12994C21.7198 7.35994 22.1798 7.45994 22.6398 7.40994L24.5398 7.20994C25.3098 7.12994 26.0898 7.26994 26.7798 7.61994C27.4698 7.96994 28.0398 8.50994 28.4298 9.18994C28.8198 9.85994 28.9998 10.6199 28.9598 11.3999C28.9198 12.1799 28.6598 12.9199 28.1998 13.5399L27.0698 15.0899C26.7998 15.4699 26.6498 15.9099 26.6498 16.3799C26.6498 16.8499 26.7898 17.2999 27.0698 17.6799L28.1998 19.2299C28.6598 19.8599 28.9198 20.5999 28.9598 21.3699C28.9998 22.1399 28.8198 22.9099 28.4298 23.5799C28.0398 24.2499 27.4698 24.7899 26.7798 25.1499C26.0898 25.4999 25.3098 25.6399 24.5398 25.5599L22.6298 25.3599C22.1698 25.3099 21.7098 25.4099 21.3098 25.6399C20.9098 25.8699 20.5998 26.2199 20.4098 26.6399L19.6298 28.3899C19.3198 29.0999 18.8098 29.6999 18.1498 30.1199C17.4998 30.5399 16.7498 30.7699 15.9698 30.7699L15.9898 30.7499ZM13.4698 25.7699L14.2498 27.5199C14.3998 27.8599 14.6398 28.1399 14.9498 28.3399C15.5698 28.7399 16.4098 28.7399 17.0198 28.3399C17.3298 28.1399 17.5698 27.8599 17.7198 27.5199L18.4998 25.7699C18.8698 24.9399 19.4798 24.2599 20.2698 23.8099C21.0598 23.3499 21.9598 23.1599 22.8698 23.2599L24.7798 23.4599C25.1498 23.4999 25.5098 23.4299 25.8398 23.2599C26.1698 23.0899 26.4398 22.8399 26.6198 22.5199C26.7998 22.1999 26.8898 21.8399 26.8698 21.4699C26.8498 21.0999 26.7298 20.7499 26.5098 20.4499L25.3798 18.8999C24.8398 18.1599 24.5598 17.2799 24.5698 16.3699C24.5698 15.4599 24.8498 14.5899 25.3898 13.8499L26.5198 12.2999C26.7398 11.9999 26.8598 11.6499 26.8798 11.2799C26.8998 10.9099 26.8098 10.5499 26.6298 10.2299C26.4398 9.90994 26.1698 9.64994 25.8498 9.47994C25.5198 9.30994 25.1498 9.24994 24.7898 9.27994L22.8798 9.47994C21.9698 9.57994 21.0698 9.37994 20.2798 8.92994C19.4898 8.46994 18.8798 7.78994 18.5098 6.95994L17.7298 5.20994C17.5798 4.86994 17.3398 4.58994 17.0298 4.37994C16.4098 3.97994 15.5798 3.97994 14.9598 4.37994C14.6498 4.57994 14.4098 4.86994 14.2598 5.19994L13.4798 6.94994C13.1098 7.77994 12.4998 8.45994 11.7198 8.91994C10.9298 9.37994 10.0398 9.56994 9.11984 9.46994L7.19984 9.26994C6.82984 9.22994 6.46984 9.29994 6.13984 9.46994C5.80984 9.63994 5.53984 9.88994 5.35984 10.2099C5.17984 10.5299 5.08984 10.8899 5.10984 11.2599C5.12984 11.6299 5.24984 11.9799 5.46984 12.2799L6.59984 13.8299C7.13984 14.5699 7.41984 15.4399 7.41984 16.3499C7.41984 17.2599 7.13984 18.1399 6.59984 18.8699L5.46984 20.4199C5.24984 20.7199 5.12984 21.0699 5.10984 21.4399C5.08984 21.8099 5.17984 22.1699 5.35984 22.4899C5.53984 22.8099 5.81984 23.0699 6.13984 23.2299C6.46984 23.3999 6.83984 23.4699 7.19984 23.4299L9.10984 23.2299C10.0198 23.1399 10.9198 23.3299 11.7098 23.7799C12.4998 24.2399 13.1098 24.9199 13.4798 25.7499L13.4698 25.7699Z" fill="var(--fill-0, white)"/>
</svg>
