<svg width="32" height="32" viewBox="0 0 32 32" fill="none" xmlns="http://www.w3.org/2000/svg">
<path fill-rule="evenodd" clip-rule="evenodd" d="M30.0763 11.2575C30.4864 11.6676 30.4864 12.3324 30.0763 12.7425L22.0763 20.7425C21.6663 21.1525 21.0014 21.1525 20.5914 20.7425C20.1813 20.3324 20.1813 19.6676 20.5914 19.2575L28.5914 11.2575C29.0014 10.8475 29.6663 10.8475 30.0763 11.2575Z" fill="var(--fill-0, white)"/>
<path fill-rule="evenodd" clip-rule="evenodd" d="M20.5914 11.2575C21.0014 10.8475 21.6663 10.8475 22.0763 11.2575L30.0763 19.2575C30.4864 19.6676 30.4864 20.3324 30.0763 20.7425C29.6663 21.1525 29.0014 21.1525 28.5914 20.7425L20.5914 12.7425C20.1813 12.3324 20.1813 11.6676 20.5914 11.2575Z" fill="var(--fill-0, white)"/>
<path fill-rule="evenodd" clip-rule="evenodd" d="M13.6172 6.53493L9.21162 10.9405C9.19988 10.9522 9.1878 10.9644 9.17538 10.9769C9.04211 11.1109 8.86922 11.2848 8.65743 11.4146C8.47402 11.527 8.27405 11.6098 8.06488 11.66C7.82335 11.718 7.57814 11.7173 7.38913 11.7168C7.37151 11.7167 7.35438 11.7167 7.33778 11.7167H4.26719C3.99443 11.7167 3.83736 11.7174 3.72519 11.7247C3.71788 11.8368 3.71719 11.9939 3.71719 12.2667V19.7333C3.71719 20.0061 3.71788 20.1632 3.72519 20.2753C3.83735 20.2826 3.99443 20.2833 4.26719 20.2833H7.33778C7.35438 20.2833 7.37151 20.2833 7.38913 20.2832C7.57814 20.2827 7.82335 20.282 8.06488 20.34C8.27405 20.3902 8.47402 20.473 8.65743 20.5854C8.86922 20.7152 9.04211 20.8891 9.17538 21.0231C9.1878 21.0356 9.19988 21.0478 9.21162 21.0595L13.6172 25.4651V6.53493ZM14.0456 3.66189C14.5402 3.62296 15.0236 3.82318 15.3458 4.20047C15.636 4.54026 15.6811 4.94763 15.6981 5.13962C15.7173 5.35588 15.7172 5.62369 15.7172 5.89301V26.107C15.7172 26.3763 15.7173 26.6441 15.6981 26.8604C15.6811 27.0524 15.636 27.4598 15.3458 27.7995C15.0236 28.1768 14.5402 28.3771 14.0456 28.3381C13.6001 28.3031 13.2802 28.0469 13.1324 27.9232C12.9659 27.7838 12.7766 27.5944 12.5862 27.4039L7.72669 22.5444C7.6825 22.5002 7.64829 22.466 7.61837 22.4367C7.59531 22.414 7.57814 22.3975 7.56486 22.3851C7.54669 22.3845 7.5229 22.384 7.49058 22.3837C7.44865 22.3833 7.40029 22.3833 7.33778 22.3833L4.2343 22.3833C3.98283 22.3834 3.73516 22.3834 3.52489 22.3662C3.29321 22.3473 3.01616 22.3024 2.73651 22.1599C2.35078 21.9634 2.03717 21.6498 1.84063 21.264C1.69814 20.9844 1.65323 20.7073 1.6343 20.4756C1.61713 20.2654 1.61716 20.0177 1.61719 19.7662V12.2338C1.61716 11.9823 1.61713 11.7346 1.6343 11.5244C1.65323 11.2927 1.69814 11.0156 1.84063 10.736C2.03717 10.3503 2.35078 10.0367 2.73651 9.84011C3.01616 9.69762 3.29321 9.65271 3.52489 9.63378C3.73516 9.61661 3.98283 9.61664 4.2343 9.61667C4.24526 9.61667 4.25622 9.61667 4.26719 9.61667H7.33778C7.40029 9.61667 7.44865 9.61666 7.49058 9.61628C7.5229 9.61599 7.5467 9.61551 7.56486 9.61489C7.57815 9.60248 7.59531 9.586 7.61837 9.56335C7.6483 9.53397 7.6825 9.49978 7.72669 9.45558L12.559 4.62323C12.5681 4.61419 12.5771 4.60514 12.5862 4.5961C12.7766 4.40563 12.9659 4.21623 13.1324 4.07686C13.2802 3.95313 13.6001 3.69695 14.0456 3.66189Z" fill="var(--fill-0, white)"/>
</svg>
