<svg width="32" height="32" viewBox="0 0 32 32" fill="none" xmlns="http://www.w3.org/2000/svg">
<path fill-rule="evenodd" clip-rule="evenodd" d="M23.409 8.59086C23.819 9.00091 23.819 9.66574 23.409 10.0758L10.0757 23.4091C9.66561 23.8192 9.00079 23.8192 8.59074 23.4091C8.18069 22.9991 8.18069 22.3342 8.59074 21.9242L21.9241 8.59086C22.3341 8.18081 22.9989 8.18081 23.409 8.59086Z" fill="var(--fill-0, white)"/>
<path fill-rule="evenodd" clip-rule="evenodd" d="M8.59074 8.59086C9.00079 8.18081 9.66561 8.18081 10.0757 8.59086L23.409 21.9242C23.819 22.3342 23.819 22.9991 23.409 23.4091C22.9989 23.8192 22.3341 23.8192 21.9241 23.4091L8.59074 10.0758C8.18069 9.66574 8.18069 9.00091 8.59074 8.59086Z" fill="var(--fill-0, white)"/>
</svg>
